# xmcd
#
# Track frame offsets:
#	150
#	16501
#	29997
#	47922
#
# Disc length: 848 seconds
#
# Revision: 1
# Processed by: cddbd v1.5.2PL0 Copyright (c) Steve Scherf et al.
# Submitted via: audiograbber 1.83.01
#
DISCID=2c034e04
DTITLE=Ostfront - Adrenalin
DYEAR=2018
DGENRE=Heavy Metal
TTITLE0=Ich will alles
TTITLE1=Bluthund
TTITLE2=Rosenkavalier
TTITLE3=Willenskraft
EXTD=
EXTT0=
EXTT1=
EXTT2=
EXTT3=
PLAYORDER=
